<svg width="37" height="28" viewBox="0 0 37 28" fill="none" xmlns="http://www.w3.org/2000/svg">
<path d="M23.7417 0C23.3749 0.641291 23.048 1.30358 22.7629 1.98326C19.9608 1.55064 17.1065 1.55064 14.3045 1.98326C14.0193 1.30358 13.6925 0.641291 13.3257 0C10.6862 0.440285 8.12032 1.22879 5.69842 2.34385C1.36756 8.44559 -0.596519 15.8534 0.158015 23.2402C2.98037 25.3115 6.14804 26.8913 9.52129 27.9098C10.2894 26.9193 10.9749 25.8702 11.5712 24.7727C10.4707 24.3766 9.41288 23.8753 8.41321 23.2762C8.68739 23.0981 8.94675 22.8992 9.18887 22.6813C12.104 24.0521 15.298 24.7639 18.5337 24.7639C21.7693 24.7639 24.9634 24.0521 27.8785 22.6813C28.137 22.8976 28.3956 23.0959 28.6541 23.2762C27.649 23.8706 26.5923 24.3774 25.4961 24.7907C26.0677 25.9131 26.7349 26.9867 27.4907 28C30.8597 26.985 34.0219 25.4048 36.8355 23.3303C37.6081 15.9422 35.6424 8.52834 31.2951 2.434C28.9004 1.29586 26.3598 0.477191 23.7417 0ZM12.4023 19.0212C11.4781 18.9565 10.6156 18.5447 9.99578 17.8723C9.37595 17.2 9.04703 16.3194 9.07806 15.4153C9.04235 14.5101 9.36965 13.6269 9.9904 12.9536C10.6112 12.2802 11.4764 11.8698 12.4023 11.8094C13.3282 11.8698 14.1934 12.2802 14.8142 12.9536C15.435 13.6269 15.7623 14.5101 15.7265 15.4153C15.7623 16.3206 15.435 17.2037 14.8142 17.8771C14.1934 18.5504 13.3282 18.9609 12.4023 19.0212ZM24.6651 19.0212C23.7409 18.9565 22.8784 18.5447 22.2585 17.8723C21.6387 17.2 21.3098 16.3194 21.3408 15.4153C21.3051 14.5101 21.6324 13.6269 22.2532 12.9536C22.8739 12.2802 23.7392 11.8698 24.6651 11.8094C25.5927 11.8652 26.4607 12.2744 27.0824 12.9488C27.7041 13.6232 28.0298 14.5089 27.9893 15.4153C28.0298 16.3218 27.7041 17.2075 27.0824 17.8819C26.4607 18.5563 25.5927 18.9654 24.6651 19.0212Z" fill="white"/>
<path d="M23.7417 0C23.3749 0.641291 23.048 1.30358 22.7629 1.98326C19.9608 1.55064 17.1065 1.55064 14.3045 1.98326C14.0193 1.30358 13.6925 0.641291 13.3257 0C10.6862 0.440285 8.12032 1.22879 5.69842 2.34385C1.36756 8.44559 -0.596519 15.8534 0.158015 23.2402C2.98037 25.3115 6.14804 26.8913 9.52129 27.9098C10.2894 26.9193 10.9749 25.8702 11.5712 24.7727C10.4707 24.3766 9.41288 23.8753 8.41321 23.2762C8.68739 23.0981 8.94675 22.8992 9.18887 22.6813C12.104 24.0521 15.298 24.7639 18.5337 24.7639C21.7693 24.7639 24.9634 24.0521 27.8785 22.6813C28.137 22.8976 28.3956 23.0959 28.6541 23.2762C27.649 23.8706 26.5923 24.3774 25.4961 24.7907C26.0677 25.9131 26.7349 26.9867 27.4907 28C30.8597 26.985 34.0219 25.4048 36.8355 23.3303C37.6081 15.9422 35.6424 8.52834 31.2951 2.434C28.9004 1.29586 26.3598 0.477191 23.7417 0ZM12.4023 19.0212C11.4781 18.9565 10.6156 18.5447 9.99578 17.8723C9.37595 17.2 9.04703 16.3194 9.07806 15.4153C9.04235 14.5101 9.36965 13.6269 9.9904 12.9536C10.6112 12.2802 11.4764 11.8698 12.4023 11.8094C13.3282 11.8698 14.1934 12.2802 14.8142 12.9536C15.435 13.6269 15.7623 14.5101 15.7265 15.4153C15.7623 16.3206 15.435 17.2037 14.8142 17.8771C14.1934 18.5504 13.3282 18.9609 12.4023 19.0212ZM24.6651 19.0212C23.7409 18.9565 22.8784 18.5447 22.2585 17.8723C21.6387 17.2 21.3098 16.3194 21.3408 15.4153C21.3051 14.5101 21.6324 13.6269 22.2532 12.9536C22.8739 12.2802 23.7392 11.8698 24.6651 11.8094C25.5927 11.8652 26.4607 12.2744 27.0824 12.9488C27.7041 13.6232 28.0298 14.5089 27.9893 15.4153C28.0298 16.3218 27.7041 17.2075 27.0824 17.8819C26.4607 18.5563 25.5927 18.9654 24.6651 19.0212Z" fill="white"/>
<path d="M23.7417 0C23.3749 0.641291 23.048 1.30358 22.7629 1.98326C19.9608 1.55064 17.1065 1.55064 14.3045 1.98326C14.0193 1.30358 13.6925 0.641291 13.3257 0C10.6862 0.440285 8.12032 1.22879 5.69842 2.34385C1.36756 8.44559 -0.596519 15.8534 0.158015 23.2402C2.98037 25.3115 6.14804 26.8913 9.52129 27.9098C10.2894 26.9193 10.9749 25.8702 11.5712 24.7727C10.4707 24.3766 9.41288 23.8753 8.41321 23.2762C8.68739 23.0981 8.94675 22.8992 9.18887 22.6813C12.104 24.0521 15.298 24.7639 18.5337 24.7639C21.7693 24.7639 24.9634 24.0521 27.8785 22.6813C28.137 22.8976 28.3956 23.0959 28.6541 23.2762C27.649 23.8706 26.5923 24.3774 25.4961 24.7907C26.0677 25.9131 26.7349 26.9867 27.4907 28C30.8597 26.985 34.0219 25.4048 36.8355 23.3303C37.6081 15.9422 35.6424 8.52834 31.2951 2.434C28.9004 1.29586 26.3598 0.477191 23.7417 0ZM12.4023 19.0212C11.4781 18.9565 10.6156 18.5447 9.99578 17.8723C9.37595 17.2 9.04703 16.3194 9.07806 15.4153C9.04235 14.5101 9.36965 13.6269 9.9904 12.9536C10.6112 12.2802 11.4764 11.8698 12.4023 11.8094C13.3282 11.8698 14.1934 12.2802 14.8142 12.9536C15.435 13.6269 15.7623 14.5101 15.7265 15.4153C15.7623 16.3206 15.435 17.2037 14.8142 17.8771C14.1934 18.5504 13.3282 18.9609 12.4023 19.0212ZM24.6651 19.0212C23.7409 18.9565 22.8784 18.5447 22.2585 17.8723C21.6387 17.2 21.3098 16.3194 21.3408 15.4153C21.3051 14.5101 21.6324 13.6269 22.2532 12.9536C22.8739 12.2802 23.7392 11.8698 24.6651 11.8094C25.5927 11.8652 26.4607 12.2744 27.0824 12.9488C27.7041 13.6232 28.0298 14.5089 27.9893 15.4153C28.0298 16.3218 27.7041 17.2075 27.0824 17.8819C26.4607 18.5563 25.5927 18.9654 24.6651 19.0212Z" fill="white"/>
<path d="M23.7417 0C23.3749 0.641291 23.048 1.30358 22.7629 1.98326C19.9608 1.55064 17.1065 1.55064 14.3045 1.98326C14.0193 1.30358 13.6925 0.641291 13.3257 0C10.6862 0.440285 8.12032 1.22879 5.69842 2.34385C1.36756 8.44559 -0.596519 15.8534 0.158015 23.2402C2.98037 25.3115 6.14804 26.8913 9.52129 27.9098C10.2894 26.9193 10.9749 25.8702 11.5712 24.7727C10.4707 24.3766 9.41288 23.8753 8.41321 23.2762C8.68739 23.0981 8.94675 22.8992 9.18887 22.6813C12.104 24.0521 15.298 24.7639 18.5337 24.7639C21.7693 24.7639 24.9634 24.0521 27.8785 22.6813C28.137 22.8976 28.3956 23.0959 28.6541 23.2762C27.649 23.8706 26.5923 24.3774 25.4961 24.7907C26.0677 25.9131 26.7349 26.9867 27.4907 28C30.8597 26.985 34.0219 25.4048 36.8355 23.3303C37.6081 15.9422 35.6424 8.52834 31.2951 2.434C28.9004 1.29586 26.3598 0.477191 23.7417 0ZM12.4023 19.0212C11.4781 18.9565 10.6156 18.5447 9.99578 17.8723C9.37595 17.2 9.04703 16.3194 9.07806 15.4153C9.04235 14.5101 9.36965 13.6269 9.9904 12.9536C10.6112 12.2802 11.4764 11.8698 12.4023 11.8094C13.3282 11.8698 14.1934 12.2802 14.8142 12.9536C15.435 13.6269 15.7623 14.5101 15.7265 15.4153C15.7623 16.3206 15.435 17.2037 14.8142 17.8771C14.1934 18.5504 13.3282 18.9609 12.4023 19.0212ZM24.6651 19.0212C23.7409 18.9565 22.8784 18.5447 22.2585 17.8723C21.6387 17.2 21.3098 16.3194 21.3408 15.4153C21.3051 14.5101 21.6324 13.6269 22.2532 12.9536C22.8739 12.2802 23.7392 11.8698 24.6651 11.8094C25.5927 11.8652 26.4607 12.2744 27.0824 12.9488C27.7041 13.6232 28.0298 14.5089 27.9893 15.4153C28.0298 16.3218 27.7041 17.2075 27.0824 17.8819C26.4607 18.5563 25.5927 18.9654 24.6651 19.0212Z" fill="white"/>
</svg>
