<svg width="31" height="32" viewBox="0 0 31 32" fill="none" xmlns="http://www.w3.org/2000/svg">
<path d="M15.4879 7.52637C13.3767 7.52637 11.3521 8.36501 9.85927 9.8578C8.36648 11.3506 7.52783 13.3753 7.52783 15.4864C7.52783 17.5975 8.36648 19.6222 9.85927 21.115C11.3521 22.6078 13.3767 23.4464 15.4879 23.4464C17.599 23.4464 19.6236 22.6078 21.1164 21.115C22.6092 19.6222 23.4479 17.5975 23.4479 15.4864C23.4479 13.3753 22.6092 11.3506 21.1164 9.8578C19.6236 8.36501 17.599 7.52637 15.4879 7.52637ZM15.4879 20.6559C14.1163 20.6559 12.801 20.1111 11.8312 19.1413C10.8614 18.1715 10.3166 16.8562 10.3166 15.4847C10.3166 14.1132 10.8614 12.7978 11.8312 11.828C12.801 10.8582 14.1163 10.3134 15.4879 10.3134C16.8594 10.3134 18.1747 10.8582 19.1445 11.828C20.1143 12.7978 20.6591 14.1132 20.6591 15.4847C20.6591 16.8562 20.1143 18.1715 19.1445 19.1413C18.1747 20.1111 16.8594 20.6559 15.4879 20.6559Z" fill="white"/>
<path d="M15.4879 7.52637C13.3767 7.52637 11.3521 8.36501 9.85927 9.8578C8.36648 11.3506 7.52783 13.3753 7.52783 15.4864C7.52783 17.5975 8.36648 19.6222 9.85927 21.115C11.3521 22.6078 13.3767 23.4464 15.4879 23.4464C17.599 23.4464 19.6236 22.6078 21.1164 21.115C22.6092 19.6222 23.4479 17.5975 23.4479 15.4864C23.4479 13.3753 22.6092 11.3506 21.1164 9.8578C19.6236 8.36501 17.599 7.52637 15.4879 7.52637ZM15.4879 20.6559C14.1163 20.6559 12.801 20.1111 11.8312 19.1413C10.8614 18.1715 10.3166 16.8562 10.3166 15.4847C10.3166 14.1132 10.8614 12.7978 11.8312 11.828C12.801 10.8582 14.1163 10.3134 15.4879 10.3134C16.8594 10.3134 18.1747 10.8582 19.1445 11.828C20.1143 12.7978 20.6591 14.1132 20.6591 15.4847C20.6591 16.8562 20.1143 18.1715 19.1445 19.1413C18.1747 20.1111 16.8594 20.6559 15.4879 20.6559Z" fill="white"/>
<path d="M15.4879 7.52637C13.3767 7.52637 11.3521 8.36501 9.85927 9.8578C8.36648 11.3506 7.52783 13.3753 7.52783 15.4864C7.52783 17.5975 8.36648 19.6222 9.85927 21.115C11.3521 22.6078 13.3767 23.4464 15.4879 23.4464C17.599 23.4464 19.6236 22.6078 21.1164 21.115C22.6092 19.6222 23.4479 17.5975 23.4479 15.4864C23.4479 13.3753 22.6092 11.3506 21.1164 9.8578C19.6236 8.36501 17.599 7.52637 15.4879 7.52637ZM15.4879 20.6559C14.1163 20.6559 12.801 20.1111 11.8312 19.1413C10.8614 18.1715 10.3166 16.8562 10.3166 15.4847C10.3166 14.1132 10.8614 12.7978 11.8312 11.828C12.801 10.8582 14.1163 10.3134 15.4879 10.3134C16.8594 10.3134 18.1747 10.8582 19.1445 11.828C20.1143 12.7978 20.6591 14.1132 20.6591 15.4847C20.6591 16.8562 20.1143 18.1715 19.1445 19.1413C18.1747 20.1111 16.8594 20.6559 15.4879 20.6559Z" fill="white"/>
<path d="M15.4879 7.52637C13.3767 7.52637 11.3521 8.36501 9.85927 9.8578C8.36648 11.3506 7.52783 13.3753 7.52783 15.4864C7.52783 17.5975 8.36648 19.6222 9.85927 21.115C11.3521 22.6078 13.3767 23.4464 15.4879 23.4464C17.599 23.4464 19.6236 22.6078 21.1164 21.115C22.6092 19.6222 23.4479 17.5975 23.4479 15.4864C23.4479 13.3753 22.6092 11.3506 21.1164 9.8578C19.6236 8.36501 17.599 7.52637 15.4879 7.52637ZM15.4879 20.6559C14.1163 20.6559 12.801 20.1111 11.8312 19.1413C10.8614 18.1715 10.3166 16.8562 10.3166 15.4847C10.3166 14.1132 10.8614 12.7978 11.8312 11.828C12.801 10.8582 14.1163 10.3134 15.4879 10.3134C16.8594 10.3134 18.1747 10.8582 19.1445 11.828C20.1143 12.7978 20.6591 14.1132 20.6591 15.4847C20.6591 16.8562 20.1143 18.1715 19.1445 19.1413C18.1747 20.1111 16.8594 20.6559 15.4879 20.6559Z" fill="white"/>
<path d="M23.763 9.08915C24.7878 9.08915 25.6187 8.25831 25.6187 7.23342C25.6187 6.20852 24.7878 5.37769 23.763 5.37769C22.7381 5.37769 21.9072 6.20852 21.9072 7.23342C21.9072 8.25831 22.7381 9.08915 23.763 9.08915Z" fill="white"/>
<path d="M23.763 9.08915C24.7878 9.08915 25.6187 8.25831 25.6187 7.23342C25.6187 6.20852 24.7878 5.37769 23.763 5.37769C22.7381 5.37769 21.9072 6.20852 21.9072 7.23342C21.9072 8.25831 22.7381 9.08915 23.763 9.08915Z" fill="white"/>
<path d="M23.763 9.08915C24.7878 9.08915 25.6187 8.25831 25.6187 7.23342C25.6187 6.20852 24.7878 5.37769 23.763 5.37769C22.7381 5.37769 21.9072 6.20852 21.9072 7.23342C21.9072 8.25831 22.7381 9.08915 23.763 9.08915Z" fill="white"/>
<path d="M23.763 9.08915C24.7878 9.08915 25.6187 8.25831 25.6187 7.23342C25.6187 6.20852 24.7878 5.37769 23.763 5.37769C22.7381 5.37769 21.9072 6.20852 21.9072 7.23342C21.9072 8.25831 22.7381 9.08915 23.763 9.08915Z" fill="white"/>
<path d="M30.1789 5.34685C29.7804 4.31773 29.1714 3.38315 28.3908 2.60294C27.6103 1.82274 26.6755 1.21409 25.6463 0.815971C24.4418 0.363842 23.1694 0.119368 21.8832 0.0929585C20.2254 0.0206573 19.7004 0 15.4966 0C11.2928 0 10.7539 -1.73149e-07 9.10995 0.0929585C7.82469 0.118017 6.55317 0.362541 5.35029 0.815971C4.32075 1.21363 3.3857 1.82211 2.60514 2.60238C1.82458 3.38264 1.21574 4.31746 0.817692 5.34685C0.365473 6.5512 0.12156 7.82374 0.0964016 9.10995C0.0223789 10.766 0 11.291 0 15.4966C0 19.7004 -1.28259e-08 20.2357 0.0964016 21.8832C0.122223 23.1708 0.364949 24.4412 0.817692 25.648C1.21686 26.677 1.82629 27.6115 2.60704 28.3916C3.38779 29.1718 4.32269 29.7805 5.35201 30.1789C6.55261 30.6492 7.82466 30.9111 9.11339 30.9535C10.7712 31.0258 11.2962 31.0482 15.5 31.0482C19.7038 31.0482 20.2426 31.0482 21.8866 30.9535C23.1727 30.9274 24.4451 30.6835 25.6497 30.2322C26.6787 29.8332 27.6132 29.224 28.3937 28.4436C29.1741 27.6632 29.7833 26.7286 30.1823 25.6996C30.6351 24.4946 30.8778 23.2242 30.9036 21.9365C30.9776 20.2805 31 19.7554 31 15.5499C31 11.3444 31 10.8108 30.9036 9.16332C30.8836 7.85892 30.6384 6.56779 30.1789 5.34685ZM28.0821 21.7558C28.071 22.7479 27.8899 23.7307 27.5468 24.6616C27.2882 25.331 26.8925 25.9389 26.3849 26.4462C25.8773 26.9535 25.2692 27.3489 24.5996 27.607C23.679 27.9486 22.7066 28.1297 21.7248 28.1424C20.0894 28.2181 19.6281 28.2371 15.4346 28.2371C11.2377 28.2371 10.809 28.2371 9.14266 28.1424C8.1613 28.1304 7.18937 27.9493 6.26955 27.607C5.59764 27.3505 4.98706 26.9558 4.47732 26.4484C3.96758 25.941 3.57002 25.3323 3.31036 24.6616C2.972 23.7407 2.79102 22.7694 2.77499 21.7885C2.70097 20.1531 2.68375 19.6917 2.68375 15.4983C2.68375 11.3031 2.68375 10.8744 2.77499 9.20635C2.78612 8.21483 2.9672 7.23256 3.31036 6.30225C3.83541 4.94403 4.91132 3.875 6.26955 3.35512C7.18982 3.01451 8.16147 2.83346 9.14266 2.81975C10.7798 2.74572 11.2394 2.72507 15.4346 2.72507C19.6298 2.72507 20.0601 2.72507 21.7248 2.81975C22.7067 2.83156 23.6793 3.01267 24.5996 3.35512C25.2691 3.61381 25.8772 4.00962 26.3847 4.51716C26.8923 5.02469 27.2881 5.63273 27.5468 6.30225C27.8851 7.22315 28.0661 8.19441 28.0821 9.17537C28.1562 10.8125 28.1751 11.2721 28.1751 15.4673C28.1751 19.6608 28.1751 20.1118 28.1011 21.7575H28.0821V21.7558Z" fill="white"/>
<path d="M30.1789 5.34685C29.7804 4.31773 29.1714 3.38315 28.3908 2.60294C27.6103 1.82274 26.6755 1.21409 25.6463 0.815971C24.4418 0.363842 23.1694 0.119368 21.8832 0.0929585C20.2254 0.0206573 19.7004 0 15.4966 0C11.2928 0 10.7539 -1.73149e-07 9.10995 0.0929585C7.82469 0.118017 6.55317 0.362541 5.35029 0.815971C4.32075 1.21363 3.3857 1.82211 2.60514 2.60238C1.82458 3.38264 1.21574 4.31746 0.817692 5.34685C0.365473 6.5512 0.12156 7.82374 0.0964016 9.10995C0.0223789 10.766 0 11.291 0 15.4966C0 19.7004 -1.28259e-08 20.2357 0.0964016 21.8832C0.122223 23.1708 0.364949 24.4412 0.817692 25.648C1.21686 26.677 1.82629 27.6115 2.60704 28.3916C3.38779 29.1718 4.32269 29.7805 5.35201 30.1789C6.55261 30.6492 7.82466 30.9111 9.11339 30.9535C10.7712 31.0258 11.2962 31.0482 15.5 31.0482C19.7038 31.0482 20.2426 31.0482 21.8866 30.9535C23.1727 30.9274 24.4451 30.6835 25.6497 30.2322C26.6787 29.8332 27.6132 29.224 28.3937 28.4436C29.1741 27.6632 29.7833 26.7286 30.1823 25.6996C30.6351 24.4946 30.8778 23.2242 30.9036 21.9365C30.9776 20.2805 31 19.7554 31 15.5499C31 11.3444 31 10.8108 30.9036 9.16332C30.8836 7.85892 30.6384 6.56779 30.1789 5.34685ZM28.0821 21.7558C28.071 22.7479 27.8899 23.7307 27.5468 24.6616C27.2882 25.331 26.8925 25.9389 26.3849 26.4462C25.8773 26.9535 25.2692 27.3489 24.5996 27.607C23.679 27.9486 22.7066 28.1297 21.7248 28.1424C20.0894 28.2181 19.6281 28.2371 15.4346 28.2371C11.2377 28.2371 10.809 28.2371 9.14266 28.1424C8.1613 28.1304 7.18937 27.9493 6.26955 27.607C5.59764 27.3505 4.98706 26.9558 4.47732 26.4484C3.96758 25.941 3.57002 25.3323 3.31036 24.6616C2.972 23.7407 2.79102 22.7694 2.77499 21.7885C2.70097 20.1531 2.68375 19.6917 2.68375 15.4983C2.68375 11.3031 2.68375 10.8744 2.77499 9.20635C2.78612 8.21483 2.9672 7.23256 3.31036 6.30225C3.83541 4.94403 4.91132 3.875 6.26955 3.35512C7.18982 3.01451 8.16147 2.83346 9.14266 2.81975C10.7798 2.74572 11.2394 2.72507 15.4346 2.72507C19.6298 2.72507 20.0601 2.72507 21.7248 2.81975C22.7067 2.83156 23.6793 3.01267 24.5996 3.35512C25.2691 3.61381 25.8772 4.00962 26.3847 4.51716C26.8923 5.02469 27.2881 5.63273 27.5468 6.30225C27.8851 7.22315 28.0661 8.19441 28.0821 9.17537C28.1562 10.8125 28.1751 11.2721 28.1751 15.4673C28.1751 19.6608 28.1751 20.1118 28.1011 21.7575H28.0821V21.7558Z" fill="white"/>
<path d="M30.1789 5.34685C29.7804 4.31773 29.1714 3.38315 28.3908 2.60294C27.6103 1.82274 26.6755 1.21409 25.6463 0.815971C24.4418 0.363842 23.1694 0.119368 21.8832 0.0929585C20.2254 0.0206573 19.7004 0 15.4966 0C11.2928 0 10.7539 -1.73149e-07 9.10995 0.0929585C7.82469 0.118017 6.55317 0.362541 5.35029 0.815971C4.32075 1.21363 3.3857 1.82211 2.60514 2.60238C1.82458 3.38264 1.21574 4.31746 0.817692 5.34685C0.365473 6.5512 0.12156 7.82374 0.0964016 9.10995C0.0223789 10.766 0 11.291 0 15.4966C0 19.7004 -1.28259e-08 20.2357 0.0964016 21.8832C0.122223 23.1708 0.364949 24.4412 0.817692 25.648C1.21686 26.677 1.82629 27.6115 2.60704 28.3916C3.38779 29.1718 4.32269 29.7805 5.35201 30.1789C6.55261 30.6492 7.82466 30.9111 9.11339 30.9535C10.7712 31.0258 11.2962 31.0482 15.5 31.0482C19.7038 31.0482 20.2426 31.0482 21.8866 30.9535C23.1727 30.9274 24.4451 30.6835 25.6497 30.2322C26.6787 29.8332 27.6132 29.224 28.3937 28.4436C29.1741 27.6632 29.7833 26.7286 30.1823 25.6996C30.6351 24.4946 30.8778 23.2242 30.9036 21.9365C30.9776 20.2805 31 19.7554 31 15.5499C31 11.3444 31 10.8108 30.9036 9.16332C30.8836 7.85892 30.6384 6.56779 30.1789 5.34685ZM28.0821 21.7558C28.071 22.7479 27.8899 23.7307 27.5468 24.6616C27.2882 25.331 26.8925 25.9389 26.3849 26.4462C25.8773 26.9535 25.2692 27.3489 24.5996 27.607C23.679 27.9486 22.7066 28.1297 21.7248 28.1424C20.0894 28.2181 19.6281 28.2371 15.4346 28.2371C11.2377 28.2371 10.809 28.2371 9.14266 28.1424C8.1613 28.1304 7.18937 27.9493 6.26955 27.607C5.59764 27.3505 4.98706 26.9558 4.47732 26.4484C3.96758 25.941 3.57002 25.3323 3.31036 24.6616C2.972 23.7407 2.79102 22.7694 2.77499 21.7885C2.70097 20.1531 2.68375 19.6917 2.68375 15.4983C2.68375 11.3031 2.68375 10.8744 2.77499 9.20635C2.78612 8.21483 2.9672 7.23256 3.31036 6.30225C3.83541 4.94403 4.91132 3.875 6.26955 3.35512C7.18982 3.01451 8.16147 2.83346 9.14266 2.81975C10.7798 2.74572 11.2394 2.72507 15.4346 2.72507C19.6298 2.72507 20.0601 2.72507 21.7248 2.81975C22.7067 2.83156 23.6793 3.01267 24.5996 3.35512C25.2691 3.61381 25.8772 4.00962 26.3847 4.51716C26.8923 5.02469 27.2881 5.63273 27.5468 6.30225C27.8851 7.22315 28.0661 8.19441 28.0821 9.17537C28.1562 10.8125 28.1751 11.2721 28.1751 15.4673C28.1751 19.6608 28.1751 20.1118 28.1011 21.7575H28.0821V21.7558Z" fill="white"/>
<path d="M30.1789 5.34685C29.7804 4.31773 29.1714 3.38315 28.3908 2.60294C27.6103 1.82274 26.6755 1.21409 25.6463 0.815971C24.4418 0.363842 23.1694 0.119368 21.8832 0.0929585C20.2254 0.0206573 19.7004 0 15.4966 0C11.2928 0 10.7539 -1.73149e-07 9.10995 0.0929585C7.82469 0.118017 6.55317 0.362541 5.35029 0.815971C4.32075 1.21363 3.3857 1.82211 2.60514 2.60238C1.82458 3.38264 1.21574 4.31746 0.817692 5.34685C0.365473 6.5512 0.12156 7.82374 0.0964016 9.10995C0.0223789 10.766 0 11.291 0 15.4966C0 19.7004 -1.28259e-08 20.2357 0.0964016 21.8832C0.122223 23.1708 0.364949 24.4412 0.817692 25.648C1.21686 26.677 1.82629 27.6115 2.60704 28.3916C3.38779 29.1718 4.32269 29.7805 5.35201 30.1789C6.55261 30.6492 7.82466 30.9111 9.11339 30.9535C10.7712 31.0258 11.2962 31.0482 15.5 31.0482C19.7038 31.0482 20.2426 31.0482 21.8866 30.9535C23.1727 30.9274 24.4451 30.6835 25.6497 30.2322C26.6787 29.8332 27.6132 29.224 28.3937 28.4436C29.1741 27.6632 29.7833 26.7286 30.1823 25.6996C30.6351 24.4946 30.8778 23.2242 30.9036 21.9365C30.9776 20.2805 31 19.7554 31 15.5499C31 11.3444 31 10.8108 30.9036 9.16332C30.8836 7.85892 30.6384 6.56779 30.1789 5.34685ZM28.0821 21.7558C28.071 22.7479 27.8899 23.7307 27.5468 24.6616C27.2882 25.331 26.8925 25.9389 26.3849 26.4462C25.8773 26.9535 25.2692 27.3489 24.5996 27.607C23.679 27.9486 22.7066 28.1297 21.7248 28.1424C20.0894 28.2181 19.6281 28.2371 15.4346 28.2371C11.2377 28.2371 10.809 28.2371 9.14266 28.1424C8.1613 28.1304 7.18937 27.9493 6.26955 27.607C5.59764 27.3505 4.98706 26.9558 4.47732 26.4484C3.96758 25.941 3.57002 25.3323 3.31036 24.6616C2.972 23.7407 2.79102 22.7694 2.77499 21.7885C2.70097 20.1531 2.68375 19.6917 2.68375 15.4983C2.68375 11.3031 2.68375 10.8744 2.77499 9.20635C2.78612 8.21483 2.9672 7.23256 3.31036 6.30225C3.83541 4.94403 4.91132 3.875 6.26955 3.35512C7.18982 3.01451 8.16147 2.83346 9.14266 2.81975C10.7798 2.74572 11.2394 2.72507 15.4346 2.72507C19.6298 2.72507 20.0601 2.72507 21.7248 2.81975C22.7067 2.83156 23.6793 3.01267 24.5996 3.35512C25.2691 3.61381 25.8772 4.00962 26.3847 4.51716C26.8923 5.02469 27.2881 5.63273 27.5468 6.30225C27.8851 7.22315 28.0661 8.19441 28.0821 9.17537C28.1562 10.8125 28.1751 11.2721 28.1751 15.4673C28.1751 19.6608 28.1751 20.1118 28.1011 21.7575H28.0821V21.7558Z" fill="white"/>
</svg>
