<svg width="50" height="47" viewBox="0 0 50 47" fill="none" xmlns="http://www.w3.org/2000/svg">
<path d="M20.5208 16.24C19.75 15.94 18.9167 15.82 18.0625 15.84C17.5208 15.84 17.0417 15.84 16.6458 15.86C16.2292 15.84 15.9375 15.86 15.7917 15.88V22.6C16.0833 22.62 16.3542 22.64 16.6042 22.64H17.7083C18.5208 22.64 19.3333 22.52 20.1042 22.28C20.7708 22.1 21.3542 21.72 21.8125 21.22C22.25 20.72 22.4583 20.04 22.4583 19.16C22.4792 18.54 22.3125 17.92 21.9792 17.38C21.625 16.86 21.125 16.46 20.5208 16.24ZM41.1458 0H8.85417C3.95833 0 0 3.8 0 8.5V38.298C0 42.998 3.95833 46.798 8.85417 46.798H41.1458C46.0417 46.798 50 42.998 50 38.298V8.5C50 3.8 46.0417 0 41.1458 0ZM25.7479 23.3C24.9167 24.42 23.75 25.26 22.3958 25.74C20.9792 26.24 19.4167 26.42 17.7083 26.42C17.2083 26.42 16.875 26.42 16.6667 26.4C16.4583 26.38 16.1667 26.38 15.7708 26.38V32.798C15.7917 32.938 15.6875 33.06 15.5417 33.08H11.5C11.3333 33.08 11.25 32.998 11.25 32.818V12.24C11.25 12.1 11.3125 12.02 11.4583 12.02C11.8125 12.02 12.1458 12.02 12.625 12C13.125 11.98 13.6458 11.98 14.2083 11.96C14.7708 11.94 15.375 11.94 16.0208 11.92C16.6667 11.9 17.2917 11.9 17.9167 11.9C19.625 11.9 21.0417 12.1 22.2083 12.52C23.25 12.86 24.2083 13.42 25 14.16C25.6667 14.8 26.1875 15.58 26.5208 16.44C26.8312 17.28 26.9979 18.14 26.9979 19.04C27 20.76 26.5833 22.18 25.7479 23.3ZM40.5208 31.08C39.9375 31.88 39.1229 32.498 38.1875 32.862C37.1667 33.28 35.9167 33.498 34.4146 33.498C33.4583 33.498 32.5187 33.42 31.5833 33.24C30.8542 33.118 30.125 32.9 29.4583 32.6C29.3125 32.522 29.2062 32.382 29.2271 32.222V28.742C29.2271 28.684 29.25 28.602 29.3125 28.562C29.3729 28.522 29.4375 28.542 29.5 28.582C30.3125 29.042 31.1667 29.364 32.0833 29.562C32.8729 29.762 33.7062 29.862 34.5417 29.862C35.3333 29.862 35.8958 29.76 36.2708 29.58C36.6042 29.44 36.8333 29.1 36.8333 28.74C36.8333 28.458 36.6667 28.2 36.3333 27.94C36 27.682 35.3146 27.382 34.2938 26.998C33.2313 26.638 32.2542 26.158 31.3354 25.56C30.6896 25.118 30.15 24.54 29.75 23.86C29.4187 23.22 29.2521 22.52 29.2729 21.818C29.2729 20.958 29.5229 20.138 29.9833 19.398C30.5042 18.598 31.2729 17.958 32.1687 17.558C33.1458 17.08 34.375 16.86 35.8542 16.86C36.7083 16.86 37.5833 16.92 38.4375 17.04C39.0625 17.12 39.6667 17.28 40.2292 17.5C40.3104 17.52 40.3958 17.6 40.4375 17.68C40.4583 17.76 40.4792 17.84 40.4792 17.92V21.18C40.4792 21.26 40.4375 21.34 40.375 21.38C40.1875 21.42 40.0833 21.42 40 21.38C39.375 21.06 38.7083 20.84 38 20.7C37.2292 20.54 36.4583 20.44 35.6667 20.44C35.25 20.42 34.8125 20.48 34.4146 20.58C34.1458 20.64 33.9146 20.78 33.7687 20.98C33.6646 21.14 33.6021 21.34 33.6021 21.52C33.6021 21.7 33.6854 21.88 33.8125 22.04C34 22.26 34.2479 22.44 34.5208 22.58C34.9979 22.82 35.5 23.04 35.9979 23.24C37.125 23.6 38.2083 24.1 39.2083 24.7C39.8958 25.118 40.4583 25.68 40.8521 26.36C41.1854 26.996 41.3521 27.7 41.3312 28.418C41.3542 29.36 41.0625 30.298 40.5208 31.08Z" fill="white"/>
</svg>
